<svg xmlns="http://www.w3.org/2000/svg" width="347.538" height="242.924" viewBox="0 0 347.538 242.924"><defs><style>.a{fill:#2f2e41;}.b{fill:#9f616a;}.c{opacity:0.2;}.d{fill:#1c70e4;}.e{fill:#ffb9b9;}.f{fill:#002b4d;}.g{fill:#e6e6e6;}.h{fill:#fff;}</style></defs><g transform="translate(-0.003 0)"><path class="a" d="M165.112,314.922c.332,20.516,8,22.737,17.417,20.6a34.6,34.6,0,0,0,23.939-20.244l3-6.991a19.071,19.071,0,0,0-10-25.048h0a19.071,19.071,0,0,0-25.048,10C164.763,297.033,162.855,304.886,165.112,314.922Z" transform="translate(-149.63 -221.697)"/><path class="b" d="M299.244,239.078l2.89-4.891a4.595,4.595,0,0,0-2.6-6.726h0A4.595,4.595,0,0,0,293.587,232l.17,5.257-13.583,37.225,7.407,1.546Z" transform="translate(-223.211 -187.145)"/><path class="b" d="M128.787,450.206l-3.558,4.429a4.595,4.595,0,0,0,1.612,7.028h0a4.595,4.595,0,0,0,6.537-3.643l.581-5.228,18.748-34.91L145.6,415.3Z" transform="translate(-124.215 -306.509)"/><path class="a" d="M196.912,537.616l.524,6.29.123,1.468,34.819-3.349a7.677,7.677,0,0,0,6.148-10.764L227.3,507.154l-3.879-8.327-16.808-3.879c-13.86,10.609-1.39,22.316,14.3,34.16q.921.7,1.862,1.4Z" transform="translate(-170.359 -357.07)"/><path class="a" d="M161.056,630h0a2.5,2.5,0,0,0,2.282-.883l11.389-13.787-.646-6.465-3.883-2.33a2.552,2.552,0,0,0-3.687,1.251L159.083,626.6a2.5,2.5,0,0,0,1.973,3.4Z" transform="translate(-146.235 -427.668)"/><path class="c" d="M191.6,536.323l.646,7.758,1.817-.175,33-3.174a7.677,7.677,0,0,0,6.148-10.764l-9.29-20.8v-2.017l-3.879-8.327-16.808-3.879c-13.86,10.609-1.39,22.316,14.3,34.16l-.078.1Z" transform="translate(-166.989 -357.07)"/><path class="a" d="M152.205,622.916h0a2.5,2.5,0,0,0,2.282-.883l11.39-13.787-.646-6.465-3.883-2.33a2.552,2.552,0,0,0-3.687,1.251l-7.428,18.819a2.5,2.5,0,0,0,1.973,3.4Z" transform="translate(-140.617 -423.174)"/><path class="a" d="M188.062,530.536l.646,7.758,34.819-3.35a7.678,7.678,0,0,0,6.151-10.762l-9.293-20.8V491.748l-22.627-3.879c-14.406,11.025-.37,23.239,16.162,35.556Z" transform="translate(-164.741 -352.576)"/><circle class="b" cx="9.697" cy="9.697" r="9.697" transform="translate(35.604 67.413)"/><path class="b" d="M212.843,354.838l13.576,9.051,11.637-2.586-6.465-6.465v-9.7l-10.344-.646C221.03,348.366,218.811,351.91,212.843,354.838Z" transform="translate(-180.472 -261.565)"/><path class="d" d="M206.579,414.7l25.213,3.232,5.818-27.152c2.7-7.207,1.152-13.575-3.852-19.261a4.318,4.318,0,0,0-4.1-3.47l-2.388.1c.27,8.574-6.047,6.509-15.515-.646l-1.143.343a6.422,6.422,0,0,0-4.507,7.092l1.043,7.037a48.147,48.147,0,0,0,2.052,8.205C211.78,397.908,210.857,406.086,206.579,414.7Z" transform="translate(-176.148 -276.172)"/><path class="d" d="M175.672,388.859l11.637,3.879,5.172-18.748-1.752-.8a6.284,6.284,0,0,0-8.139,2.753Z" transform="translate(-156.877 -279.425)"/><path class="d" d="M145.27,233.862l6.465,7.111,7.757-12.283-9.7-5.172Z" transform="translate(-92.212 -141.882)"/><path class="a" d="M217.268,307.115c6.094,2.3,12.6,2.06,19.394,0v-7.757H217.268Z" transform="translate(-183.281 -232.915)"/><path class="a" d="M761.37,423.509l-6.686,2.786L710.116,365.57,677.8,427.409l-8.356-1.671L693.96,340.5h28.412Z" transform="translate(-424.944 -216.139)"/><path class="a" d="M1039.046,698.412h0a2.913,2.913,0,0,1-2.22-.286l-14.1-8.118a2.861,2.861,0,0,1-.6-4.5l1.26-1.26,6.685-.557,10.22,9.811a2.913,2.913,0,0,1-1.251,4.912Z" transform="translate(-693.653 -476.877)"/><path class="a" d="M766.9,704.515h0a2.913,2.913,0,0,0,2.22-.286l14.1-8.118a2.861,2.861,0,0,0,.6-4.5l-1.26-1.26-6.685-.557-10.22,9.811a2.913,2.913,0,0,0,1.251,4.912Z" transform="translate(-530.808 -480.75)"/><path class="e" d="M792.953,190.83l-2.786,1.671-5.772-9.38a4.219,4.219,0,0,1,2.724-6.339h0A4.219,4.219,0,0,1,792.2,180.6Z" transform="translate(-542.879 -155.049)"/><path class="e" d="M1020.19,410.085l1.156-3.036,10.337,3.8a4.219,4.219,0,0,1,1.779,6.666h0a4.219,4.219,0,0,1-6.349.139Z" transform="translate(-692.952 -301.273)"/><circle class="e" cx="8.357" cy="8.357" r="8.357" transform="translate(275.144 52.494)"/><path class="e" d="M775.718,191.214h-11.7V178.4l10.028-1.114Z" transform="translate(-484.975 -112.536)"/><path class="f" d="M887.956,367.314H856.2c1.12-17.718,2.006-34.84,0-44.569l1.846-8.863a4.994,4.994,0,0,1,5.508-3.937l4.345.543c2.943,5.173,6.5,5.123,10.585.557h5.234a5.247,5.247,0,0,1,5.246,5.35h0a66.275,66.275,0,0,1,1.346,19.021Z" transform="translate(-588.856 -239.611)"/><path class="f" d="M672.5,94.094l4.457-2.228,23.956,39.555-6.685,10.028Z" transform="translate(-426.88 -58.314)"/><path class="f" d="M959.691,351.762l3.809-3.213-20.238-28.359a17.937,17.937,0,0,0-17.839-7.223l-.638.117,7.653,13.392,10.079,7.631Z" transform="translate(-632.39 -241.365)"/><path class="a" d="M893.788,256.358s1.562-3.435-2.5-5c0,0-3.435-5.621-10.306-1.874,0,0-4.685,1.874-4.685,6.871s-1.562,5.934-1.562,5.934a15.072,15.072,0,0,0,2.95-4.259c.625-1.874,5.482-2.3,7.356-.425s6.558,1.562,6.558,1.562l-.312,6.871s1.561-4.06,2.186-4.06S894.725,256.358,893.788,256.358Z" transform="translate(-600.623 -200.44)"/><ellipse class="g" cx="51.132" cy="2.663" rx="51.132" ry="2.663" transform="translate(241.262 237.598)"/><ellipse class="g" cx="27.027" cy="1.408" rx="27.027" ry="1.408" transform="translate(10.071 238.854)"/><path class="d" d="M493.474,164.291,329.168,179.017a3.058,3.058,0,0,1-3.315-2.77L322.2,135.49a3.058,3.058,0,0,1,2.77-3.315l164.305-14.726a3.058,3.058,0,0,1,3.315,2.77l3.653,40.757A3.058,3.058,0,0,1,493.474,164.291Z" transform="translate(-249.881 -117.436)"/><circle class="h" cx="12.831" cy="12.831" r="12.831" transform="translate(85.657 23.42)"/><path class="h" d="M469.2,170.465a2.138,2.138,0,1,0,.382,4.26l100.409-9a2.138,2.138,0,0,0-.382-4.26Z" transform="translate(-341.965 -145.379)"/><path class="h" d="M472.339,205.455a2.138,2.138,0,1,0,.382,4.26l100.409-9a2.138,2.138,0,1,0-.382-4.26Z" transform="translate(-343.956 -167.59)"/></g></svg>